<?xml version="1.0" encoding="UTF-8"?>
<svg width="1990px" height="424px" viewBox="0 0 1990 424" version="1.1" xmlns="http://www.w3.org/2000/svg" xmlns:xlink="http://www.w3.org/1999/xlink">
    <!-- Generator: Sketch 63.1 (92452) - https://sketch.com -->
    <title>Group 2</title>
    <desc>Created with Sketch.</desc>
    <g id="Page-1" stroke="none" stroke-width="1" fill="none" fill-rule="evenodd">
        <g id="Group-2">
            <path d="M52,128 L52,372 L224,372 L224,424 L24,424 C10.745166,424 1.623249e-15,413.254834 0,400 L0,128 L52,128 Z M392,0 C409.673112,-3.24649801e-15 424,14.326888 424,32 L424,288 C424,305.673112 409.673112,320 392,320 L104,320 L104,32 C104,14.326888 118.326888,3.24649801e-15 136,0 L392,0 Z M356,52 L172,52 C163.268641,52 156.170795,58.993901 156.003036,67.6851293 L156,68 L156,268 L356,268 C364.731359,268 371.829205,261.006099 371.996964,252.314871 L372,252 L372,68 C372,59.163444 364.836556,52 356,52 Z" id="Combined-Shape" fill="#21A476"></path>
            <text id="LevaPraMim" font-family="ClanOT-Medium, ClanOT" font-size="238" font-weight="400" fill="#3F3F3F">
                <tspan x="522" y="311">LevaPraMim</tspan>
            </text>
        </g>
    </g>
</svg>